<?xml version="1.0" encoding="utf-8"?>
<!-- Generator: Adobe Illustrator 16.0.0, SVG Export Plug-In . SVG Version: 6.00 Build 0)  -->
<!DOCTYPE svg PUBLIC "-//W3C//DTD SVG 1.1//EN" "http://www.w3.org/Graphics/SVG/1.1/DTD/svg11.dtd">
<svg version="1.1" id="Layer_1" xmlns="http://www.w3.org/2000/svg" xmlns:xlink="http://www.w3.org/1999/xlink" x="0px" y="0px"
	 width="1000px" height="701.094px" viewBox="0 0 1000 701.094" enable-background="new 0 0 1000 701.094" xml:space="preserve">
<g>
	<path fill-rule="evenodd" clip-rule="evenodd" fill="#ED1C24" d="M388.21,61.861C504.193,0.392,629.329-12.8,731.32,11.405
		c232.737,55.23,251.135,229.972,127.067,410.818c-56.646,82.568-140.685,162.061-241.884,212.132
		c-165.853,82.063-325.214,86.734-429.563,23.437C82.145,594.229,56.835,487.789,94.219,374.567
		C133.355,256.045,240.356,135.017,388.21,61.861L388.21,61.861z"/>
	<path fill="#FFFFFF" d="M754.134,195.292l-0.075,0.263c-0.662,6.348-0.5,12.945,0.411,19.61c0.999,7.316,2.952,14.862,5.768,22.393
		c3.934,10.536,9.224,20.101,15.636,28.021c5.789,7.154,12.479,13.03,19.89,17.106c9.521,4.021,18.191,5.89,25.435,5.732
		c5.951-0.127,10.66-1.614,13.611-4.359c2.219-2.065,3.635-5.331,4.27-9.807c0.868-6.106,0.244-14.076-1.812-23.917
		c-0.548-2.602-1.172-5.13-1.877-7.563c-0.679-2.341-1.509-4.823-2.479-7.425c-4.79-12.823-11.615-24.477-20.096-33.393
		c-7.318-7.699-15.858-13.363-25.326-15.875c-9.972-2.647-18.413-2.921-24.468-0.653c-4.004,1.503-7.025,4.489-8.67,9.046
		L754.134,195.292L754.134,195.292z M749.68,38.79c49.344-18.438,98.492-14.231,140.174,6.317
		c43.295,21.349,78.321,60.341,96.811,109.82c10.353,27.696,14.594,56.391,13.016,84.13c-1.573,27.732-9.012,54.52-22.017,78.407
		c-0.515,1.12-1.339,2.765-2.517,4.975c-1.085,2.035-2.046,3.743-2.859,5.078c-20.139,33.019-40.695,56.538-61.339,73.768
		c-20.952,17.491-41.754,28.359-62.223,36.009c-50.456,18.853-100.375,14.725-142.595-5.708
		c-44.266-21.425-79.84-60.818-98.362-110.381c-10.134-27.124-14.729-54.196-13.894-80.537c0.846-26.595,7.258-52.254,19.13-76.292
		c8.838-17.897,23.046-38.34,41.324-57.964c16.103-17.291,35.51-34.131,57.346-48.253l0.244-0.149
		c5.676-3.773,11.665-7.284,17.975-10.501C736.306,44.24,742.909,41.32,749.68,38.79L749.68,38.79z"/>
	<path fill="#FFFFFF" d="M518.446,129.995l84.206-31.464c7.617-2.845,16.103,1.023,18.951,8.64c0.151,0.41,0.282,0.819,0.396,1.231
		l120.139,320.336c0.981,1.742,1.622,3.717,1.817,5.838c0.412,4.515-1.259,8.734-4.227,11.708l-39.307,39.404
		c-1.649,1.654-3.597,2.827-5.669,3.532l-69.482,25.613c-4.558,1.682-9.424,0.954-13.189-1.541l-0.021,0.032l-78.667-52.191
		l14.74,39.61c1.356,2.263,2.121,4.921,2.078,7.753c-0.06,4.004-1.721,7.606-4.352,10.216l-39.427,39.22
		c-1.529,1.52-3.304,2.631-5.196,3.337l0.005,0.016l-84.972,31.755c-7.617,2.843-16.102-1.025-18.951-8.643L276.389,260.757
		c-2.24-5.998-0.32-12.532,4.313-16.428l38.254-38.422c1.654-1.657,3.605-2.834,5.68-3.535l74.067-27.229
		c4.535-1.674,9.369-0.963,13.126,1.5l0.014-0.022l72.068,47.054l-13.206-35.419c-2.075-5.55-0.569-11.562,3.356-15.5l39.16-39.331
		c1.535-1.541,3.331-2.667,5.246-3.379L518.446,129.995L518.446,129.995z"/>
	<path fill="#FFFFFF" d="M230.65,660.625c-33.119,3.559-62.169-2.995-87.055-17.844c-33.64-20.069-58.955-54.976-75.854-100.207
		L0.936,363.792c-2.241-5.995-0.32-12.527,4.313-16.428l38.257-38.425c1.538-1.541,3.331-2.667,5.246-3.38l-0.019-0.049
		l84.883-31.717c7.619-2.848,16.105,1.023,18.95,8.64l68.235,182.611c3.993,10.693,9.646,20.448,17.209,27.002
		c5.816,5.041,12.994,8.307,21.715,8.665c1.806,0.075,3.8,0.092,5.338-0.147c0.008-3.309-0.304-6.673-0.882-10.037
		c-0.863-5.012-2.357-10.21-4.294-15.386l-68.234-182.614c-2.244-6-0.317-12.541,4.324-16.439l37.004-37.093
		c1.619-2.084,3.816-3.757,6.469-4.75l84.882-31.716c7.617-2.845,16.103,1.023,18.948,8.64l67.619,180.965
		c10.441,27.94,15.595,54.53,15.272,79.427c-0.331,25.212-6.277,48.492-18.04,69.477c-9.19,16.402-27.175,33.812-45.028,51.091
		c-4.036,3.906-8.059,7.803-11.428,11.128l-0.293,0.298c-6.684,7.098-14.214,13.678-22.618,19.689
		C299.856,643.93,265.907,656.837,230.65,660.625L230.65,660.625z"/>
	<polygon fill-rule="evenodd" clip-rule="evenodd" points="523.601,143.79 607.807,112.325 729.172,435.939 729.351,435.922 
		690.039,475.327 620.192,501.076 503.89,423.911 535.243,508.161 534.961,508.269 535.514,508.281 496.088,547.495 
		411.116,579.244 290.183,255.603 329.34,216.271 403.781,188.904 513.254,260.377 484.445,183.121 523.601,143.79 	"/>
	<path fill-rule="evenodd" clip-rule="evenodd" d="M754.834,52.584c92.773-34.666,184.467,17.667,218.039,107.5
		c19.363,51.829,15.777,107.146-8.599,151.259c-1.265,2.77-2.768,5.604-4.552,8.529c-38.51,63.132-77.854,89.314-116.151,103.626
		c-95.541,35.699-188.531-17.865-222.006-107.445c-19.026-50.915-17.214-100.966,4.617-145.177
		c15.512-31.421,49.338-71.813,93.436-100.331l0.027-0.008C730.252,63.44,741.987,57.385,754.834,52.584L754.834,52.584z
		 M739.605,192.606c0.141-0.51,0.281-1.009,0.434-1.506c6.157-20.063,26.009-25.911,51.236-19.211
		c25.543,6.782,44.992,30.363,55.432,58.304c2.104,5.634,3.76,11.366,4.958,17.095c4.791,22.917,2.675,38.639-6.879,47.534
		c-11.171,10.397-31.717,11.247-55.214,1.191c-19.4-10.314-34.418-29.978-43.131-53.298
		C740.219,226.062,737.668,208.673,739.605,192.606L739.605,192.606z"/>
	<polygon fill-rule="evenodd" clip-rule="evenodd" points="584.391,306.827 523.601,143.79 607.807,112.325 729.193,435.993 
		659.354,461.742 471.612,337.189 535.243,508.161 450.274,539.916 329.34,216.271 403.781,188.904 584.391,306.827 	"/>
	<polygon fill-rule="evenodd" clip-rule="evenodd" fill="#FFFFFF" points="606.781,334.824 538.01,150.365 601.248,126.735 
		714.751,429.379 660.808,449.268 449.099,308.812 520.844,501.585 456.847,525.5 343.774,222.899 402.368,201.357 606.781,334.824 
			"/>
	<polygon fill-rule="evenodd" clip-rule="evenodd" fill="#F8DA27" points="510.845,497.017 461.41,515.491 353.797,227.5 
		401.386,210.005 622.336,354.271 548.009,154.93 596.69,136.739 704.72,424.79 661.822,440.605 433.466,289.104 510.845,497.017 	
		"/>
	<path fill-rule="evenodd" clip-rule="evenodd" d="M754.834,52.584c92.773-34.666,184.467,17.667,218.039,107.5
		c33.469,89.578-1.616,189.573-94.113,224.14c-92.502,34.564-184.565-17.919-218.04-107.503
		C627.153,186.891,662.061,87.249,754.834,52.584L754.834,52.584z M785.477,134.585c-46.761,17.475-55.062,65.243-39.035,108.13
		c16.059,42.977,53.516,73.545,100.379,56.035c46.881-17.519,54.921-65.131,38.878-108.073
		C869.688,147.828,832.259,117.107,785.477,134.585L785.477,134.585z"/>
	<path fill-rule="evenodd" clip-rule="evenodd" fill="#FFFFFF" d="M758.757,63.076c86.897-32.471,172.2,16.835,203.618,100.928
		c31.336,83.849-0.922,177.36-87.538,209.727c-86.616,32.363-172.293-17.078-203.624-100.93
		C639.789,188.708,671.858,95.547,758.757,63.076L758.757,63.076z M781.554,124.095c-52.761,19.713-63.813,73.809-45.605,122.54
		c18.24,48.815,61.919,82.362,114.789,62.608c52.892-19.765,63.678-73.706,45.454-122.485
		C877.995,138.063,834.337,104.371,781.554,124.095L781.554,124.095z"/>
	<path fill-rule="evenodd" clip-rule="evenodd" fill="#F8DA27" d="M778.835,116.809c54.98-20.546,104.031,12.076,124.643,67.228
		c20.605,55.148,5.148,111.879-50.016,132.49c-55.16,20.614-104.189-12.018-124.801-67.168
		C708.057,194.207,723.85,137.352,778.835,116.809L778.835,116.809z M761.479,70.362c81.338-30.393,163.064,14.602,193.615,96.363
		c30.55,81.763-2.139,169.509-82.981,199.721C791.275,396.654,709.05,351.84,678.5,270.078
		C647.949,188.317,680.144,100.755,761.479,70.362L761.479,70.362z"/>
	<path fill-rule="evenodd" clip-rule="evenodd" d="M221.487,646.643c-66.914,3.771-113.756-39.123-139.952-109.223L14.729,358.639
		l39.158-39.334l84.885-31.717l68.235,182.618c8.803,23.562,25.228,44.053,52.119,45.16c7.639,0.314,18.308-0.305,20.502-10.742
		c0.752-11.409-1.728-23.351-5.943-34.636l-68.237-182.617l39.179-39.271l-0.022-0.057l0.127-0.047l0.044-0.046l0.049,0.008
		l84.662-31.635l67.622,180.965c19.545,52.306,19.43,98.692-1.791,136.566c-10.012,17.865-33.64,38.879-53.936,58.941l-0.084,0.081
		C311.29,625.148,264.819,644.201,221.487,646.643L221.487,646.643z"/>
	<path fill-rule="evenodd" clip-rule="evenodd" d="M333.103,587.43l0.361,0.96l-17.779,6.642c-0.523,0.194-1.046,0.38-1.28,0.461
		c-0.583,0.223-1.167,0.455-1.75,0.673l-17.781,6.646l-0.38-1.025c-85.159,22.391-143.392-22.313-173.801-103.694L53.887,319.305
		l84.885-31.717l68.235,182.618c8.803,23.562,25.228,44.053,52.119,45.16c8.026,0.331,16.069-1.161,23.578-3.966
		c7.653-2.859,14.841-7.091,20.763-12.744c19.385-18.489,18.102-44.646,9.375-68.001l-68.238-182.612l84.882-31.719l67.622,180.965
		C427.854,479.575,412.654,548.769,333.103,587.43L333.103,587.43z"/>
	<path fill-rule="evenodd" clip-rule="evenodd" fill="#FFFFFF" d="M318.956,581.572l0.092,0.249l-7.284,2.718
		c-0.521,0.196-1.044,0.38-1.395,0.505c-0.545,0.211-1.09,0.424-1.638,0.63l-7.286,2.723l-0.098-0.26
		c-84.175,26.763-140.308-14.073-170.164-93.968L68.299,325.877l63.9-23.876l64.315,172.122
		c10.455,27.978,30.563,51.14,62.15,52.436c9.524,0.396,19.049-1.334,27.962-4.666c9.074-3.391,17.548-8.431,24.574-15.131
		c22.754-21.707,22.523-52.214,12.133-80.023l-64.317-172.125l63.899-23.877l63.696,170.47
		C416.762,481.886,400.735,546.589,318.956,581.572L318.956,581.572z"/>
	<path fill-rule="evenodd" clip-rule="evenodd" fill="#F8DA27" d="M78.31,330.44l49.327-18.43l61.591,164.835
		c20.359,54.482,63.656,65.609,100.122,52.334c36.242-13.889,62.115-50.559,41.268-105.166l-61.591-164.835l49.327-18.433
		l60.973,163.184c24.335,65.131,24.672,136.328-70.296,173.297l0.011,0.026c-0.496,0.185-0.987,0.358-1.476,0.532
		c-0.518,0.201-1.028,0.406-1.557,0.602l-0.011-0.032c-93.305,33.333-142.591-20.183-167.527-86.909L78.31,330.44L78.31,330.44z"/>
	<path fill-rule="evenodd" clip-rule="evenodd" fill="#58585A" d="M497.103,185.798l30.653-30.859l17.198,46.115l-30.626,30.835
		L497.103,185.798L497.103,185.798z M520.111,247.386l30.653-30.859l6.511,17.464l-30.626,30.834L520.111,247.386L520.111,247.386z"
		/>
	<path fill-rule="evenodd" clip-rule="evenodd" fill="#58585A" d="M218.245,289.997l30.653-30.859l17.195,46.115l-30.626,30.835
		L218.245,289.997L218.245,289.997z M241.249,351.59l30.656-30.864l6.51,17.464l-30.626,30.837L241.249,351.59L241.249,351.59z"/>
	<path fill-rule="evenodd" clip-rule="evenodd" fill="#58585A" d="M66.167,465.068l30.653-30.859l17.196,46.115L83.39,511.161
		L66.167,465.068L66.167,465.068z M89.173,526.662l30.656-30.865l0.024,0.043l0.839,2.252c1.945,5.203,4.003,10.255,6.176,15.153
		l-31.016,31.229L89.173,526.662L89.173,526.662z"/>
	<path fill-rule="evenodd" clip-rule="evenodd" fill="#58585A" d="M823.459,176.233l30.859-31.071
		c11.29,9.09,20.579,21.58,27.333,35.911l-30.566,30.77C844.238,198.36,835.005,185.787,823.459,176.233L823.459,176.233z
		 M857.552,226.653l30.111-30.309c2.071,6.454,3.597,12.98,4.519,19.464l-29.286,29.486l-0.07-0.339
		C861.522,238.735,859.755,232.613,857.552,226.653L857.552,226.653z"/>
</g>
</svg>
